<svg xmlns="http://www.w3.org/2000/svg" xmlns:xlink="http://www.w3.org/1999/xlink" width="18" height="14" viewBox="0 0 18 14">
  <defs>
    <clipPath id="clip-path">
      <rect id="Rectangle_188" data-name="Rectangle 188" width="18" height="14" rx="2" transform="translate(-1146 376)" fill="#fff"/>
    </clipPath>
  </defs>
  <g id="ar" transform="translate(1146 -376)" clip-path="url(#clip-path)">
    <g id="Flag_of_Saudi_Arabia" transform="translate(-1151 374)">
      <path id="Path_2333" data-name="Path 2333" d="M0,0H27.109V18.072H0Z" fill="#006c35"/>
      <path id="Path_2334" data-name="Path 2334" d="M289.714,412.5h0c-.218.047-.211.238-.071.322-2.3,0-5.841-.033-6.6-.033-.424,0-1.767-.043-1.792-.043a1.484,1.484,0,0,0,1.251.435l3.785-.006,3.331,0a.354.354,0,0,0,.084.418l.006,0,.009,0h0a.146.146,0,0,0,.159-.077c.145.011.961.021,1.035,0h0c.051.063.1.122.2.112.168-.03.3-.046.3-.334,0,0-.017-.491-.4-.46-.09.012-.344.033-.344.033-.294-.03-.509-.033-.839-.043.03-.033.084-.165.018-.213a.12.12,0,0,0-.078-.016h-.008l-.006,0,0,0c-.017-.021-.026-.071-.037-.083h-.007Zm.156.7h0c.336.014.652,0,.988.016a.092.092,0,0,1-.008.142l-.006,0h-.009l-.282-.007a.048.048,0,0,0,0-.014c-.026-.065-.214-.06-.258-.01l0,0,0,0,0,0a.051.051,0,0,0,0,.007.046.046,0,0,0,0,.008,3.133,3.133,0,0,1-.428-.009C289.815,413.3,289.82,413.222,289.871,413.2Z" transform="translate(-272.779 -401.075)" fill="#fff" fill-rule="evenodd"/>
      <path id="Path_2335" data-name="Path 2335" d="M236.361,153.273c.046.023.169-.116.164-.29.013-.089-.035-.419-.157-.475a.1.1,0,0,0-.044,0,.112.112,0,0,0-.1.152c-.017.052.087.235.113.331.024.069-.031.264.019.284Zm-9.628-2.8c.149.066.429.038.417-.184,0-.019,0-.086-.007-.1a.065.065,0,0,0-.07-.041h0a.08.08,0,0,0-.062.059c-.006.022.01.059-.011.07s-.06,0-.058-.057a.1.1,0,0,0-.025-.052.048.048,0,0,0-.033-.009c-.021,0-.02.006-.032.022a.158.158,0,0,0-.012.051.032.032,0,0,1-.03.032c-.019,0-.015,0-.031-.009s-.02-.013-.02-.029a.167.167,0,0,0-.01-.054.065.065,0,0,0-.036-.019c-.082,0-.088.086-.083.119a.2.2,0,0,0,.1.2Zm-1.2-.009c.023.053-.023.222.025.237s.1-.117.127-.242c.013-.068,0-.3-.169-.349a.147.147,0,0,0-.027,0c-.066,0-.138.036-.11.109-.016.04.129.174.154.248Zm5.273.063a1.035,1.035,0,0,0,.092-.4c-.013-.069-.046-.1-.083-.1s-.078.042-.111.119a1.8,1.8,0,0,0-.058.363c-.023.091.1.129.16.013Zm-1.065-.06c.042.056.084.05.169.011a.166.166,0,0,0,.082-.11c.02-.093-.106.044-.123-.06s.053-.136.129-.229c0-.044,0-.08-.028-.081a.142.142,0,0,0-.065.023.439.439,0,0,0-.2.313c0,.082-.021.082.037.134Zm-4.354,1.47c.436.039.2-.679.353-.809.03-.064.085-.066.09.015v.61c0,.2.138.257.247.3.114-.008.19-.006.235.1l.054,1.055s.264.07.277-.593a5.693,5.693,0,0,1-.027-.791c0-.074.106-.078.177-.042.114.074.164.165.341.129.269-.068.432-.189.436-.38a1.54,1.54,0,0,0-.124-.544c.012-.033-.052-.118-.04-.152.048.07.122.064.138,0a.543.543,0,0,0-.233-.33.172.172,0,0,0-.286.1.835.835,0,0,0,.22.586.535.535,0,0,1,.056.293.18.18,0,0,1-.221-.04s-.214-.148-.214-.181c.057-.336.012-.374-.019-.467-.022-.128-.088-.169-.142-.257a.1.1,0,0,0-.161,0,.821.821,0,0,0,.018.622c.049.134.125.217.09.217-.029.076-.091.058-.135-.029a2.014,2.014,0,0,1-.076-.571c-.019-.15-.04-.472-.147-.553a.1.1,0,0,0-.1-.045.132.132,0,0,0-.1.078,2.5,2.5,0,0,0,.01.436,4.429,4.429,0,0,1,.133.7c.01.331-.207.143-.2-.021a1.382,1.382,0,0,0-.008-.634.125.125,0,0,0-.162-.092c-.068,0-.245.173-.294.466a2.57,2.57,0,0,0-.059.284c-.024.151-.133.259-.209-.021-.066-.2-.106-.7-.216-.586-.031.391-.069,1.078.292,1.149Zm2.808-.663h0a1.756,1.756,0,0,0,.416,0h0s0,0,0,0a5.665,5.665,0,0,0,.69-.641c-.03-.023-.057-.041-.086-.064s-.028-.05,0-.075a.2.2,0,0,0,.023-.318.4.4,0,0,0-.17-.031.325.325,0,0,0-.136.035.225.225,0,0,0-.044.315c.076.033.151.1.1.142-.215.211-.773.564-.8.628v0a.014.014,0,0,0,0,0h0v0h0Zm.845-.941h.007a.11.11,0,0,1,.1.068c.022.044.011.087-.025.1a.106.106,0,0,1-.1-.066c-.022-.044-.011-.088.025-.1Zm.788,1.293c.174.066.285-.239.356-.574.049-.094.086-.1.111-.057-.006.445.035.544.159.68a.427.427,0,0,0,.524.009l.216-.2a.138.138,0,0,1,.179-.009c.066.055.057.15.2.216a.464.464,0,0,0,.431-.084c.079-.125.1-.168.135-.215.056-.069.153-.038.153-.015-.009.039-.066.077-.027.146.067.046.083.015.123.006.141-.062.246-.343.246-.343.006-.1-.059-.1-.1-.075s-.057.041-.111.071c-.069.011-.2.051-.268-.043a3.476,3.476,0,0,1-.119-.385c0-.009-.09-.179-.007-.19.042.009.132.029.146-.041.044-.068-.095-.26-.189-.357a.216.216,0,0,0-.305-.009c-.077.065-.065.138-.081.207a.3.3,0,0,0,.071.282.81.81,0,0,1,.17.571.253.253,0,0,1-.224.1c-.059-.013-.156-.036-.208-.386-.039-.265.01-.636-.112-.81-.027-.066-.051-.129-.091-.124-.024,0-.053.03-.093.1a.39.39,0,0,0-.064.4,1.094,1.094,0,0,1,.07.619,1.189,1.189,0,0,1-.129.168.225.225,0,0,1-.273.035.273.273,0,0,1-.163-.212,2.7,2.7,0,0,0-.025-.684.14.14,0,0,0-.225-.042,1.515,1.515,0,0,0-.407.77c-.063.187-.13.133-.177.057-.115-.1-.123-.873-.261-.745-.222.583.127,1.223.369,1.16Zm-.913-.416a.27.27,0,0,0-.1.375.211.211,0,0,0,.214.064c.129.015.206-.224.206-.224s0-.067-.15.06c-.065.013-.073-.011-.09-.044a.276.276,0,0,1,.02-.187c.014-.037,0-.061-.031-.064a.134.134,0,0,0-.07.019Zm8.534,2.979c-.028-.03-.092-.013-.135-.015-.02,0-.088-.011-.056-.064a.358.358,0,0,0,.054-.1c.02-.041,0-.069-.07-.091a.5.5,0,0,0-.09-.009c-.027,0-.055,0-.1.009s-.06.027-.068.076c0,.075.053.072.1.1.03.035.049.066,0,.123l-.132.1c-.023.036-.037.091.033.109.129.034.429-.146.429-.15a.083.083,0,0,0,.028-.1Zm.929-3.15a1.178,1.178,0,0,1-.03-.239c.02-.047.12,0,.155-.049.052-.049-.259-.416-.368-.573-.022-.039-.035-.072-.054-.07s-.033.024-.061.078a.675.675,0,0,0-.064.444,22.577,22.577,0,0,1,.307,2.885.869.869,0,0,1-.061.237,1.958,1.958,0,0,1-.3.323c-.1.068-.311.133-.38.184-.219.117-.221.251-.043.256a1.132,1.132,0,0,0,.917-.4,1.262,1.262,0,0,0,.149-.522,11.227,11.227,0,0,0-.167-2.552ZM225.148,152.9l1.134-.5c-.062-.085,0-.162-.237-.168-.358.006-.883.433-.9.67Zm.2,1.083c-.094.177-.134.056-.142-.043a2.094,2.094,0,0,1,.027-.5c.012-.07.011-.094,0-.094s-.027.025-.051.053a.967.967,0,0,0-.115.92.262.262,0,0,0,.242.074.392.392,0,0,0,.161-.4c-.045-.065-.08-.075-.125-.019Zm2.674-.471a2.838,2.838,0,0,0,.049-.88h.014a.384.384,0,0,0,.52-.042.092.092,0,0,1,.133-.013.322.322,0,0,0,.466-.122,3.574,3.574,0,0,0,.065-.529.615.615,0,0,0-.208.079.05.05,0,0,0-.015.025l-.025.152a.047.047,0,0,1,0,.013.037.037,0,0,1-.018.015c-.034.017-.094.009-.1-.039-.046-.194-.237-.219-.353.082-.078.058-.22.07-.235-.017.019-.2-.07-.229-.246-.134l-.17-1.181c.074,0,.141.047.209-.031a2.152,2.152,0,0,0-.314-.674h0l-.012-.013-.005,0s0,0-.006,0a.03.03,0,0,0-.011,0,.112.112,0,0,0-.024,0h0a.662.662,0,0,0-.074.019.2.2,0,0,0-.152.245l.29,1.695a.133.133,0,0,1-.133.157c-.143-.089-.178-.27-.423-.262a.462.462,0,0,0-.4.35.785.785,0,0,0,0,.4.375.375,0,0,0,.4.092c.107-.041.2-.138.234-.115h0s0,0,0,0c.023.038,0,.357-.506.6-.31.128-.556.159-.689-.074-.082-.146.006-.7-.2-.572-.6,1.421,1.4,1.619,1.624.058.015-.044.059-.088.09-.077a.065.065,0,0,1,.031.054c-.046,1.413-1.547,1.51-1.8,1.065a1.273,1.273,0,0,1-.089-.478.228.228,0,0,0-.061-.153c-.06-.042-.142.068-.16.258a1.578,1.578,0,0,0-.018.343c.08,1.116,2.011.636,2.324-.285Zm-.746-.966s0,0,0,0v0c-.015.017-.068.011-.105.011a.1.1,0,0,1-.1-.043c-.013-.038.027-.075.044-.1h0s0-.006.008-.009a.114.114,0,0,1,.062-.025h.015a.1.1,0,0,1,.092.062.1.1,0,0,1-.02.107Zm8.277,1.828-.336.033Zm-1.893-2.894c.149.066.431.037.419-.185,0-.019-.006-.086-.008-.1a.065.065,0,0,0-.07-.041.081.081,0,0,0-.062.06c-.006.022.011.058-.01.069s-.061,0-.059-.057a.1.1,0,0,0-.025-.053.048.048,0,0,0-.033-.009c-.021,0-.02.006-.032.022a.166.166,0,0,0-.011.051c0,.022-.011.029-.028.032s-.016,0-.032-.009-.02-.013-.02-.029a.166.166,0,0,0-.01-.054.062.062,0,0,0-.036-.017c-.082,0-.086.086-.082.118a.2.2,0,0,0,.1.2Zm2.407.572c0-.13.016-.3.024-.409,0-.041.013-.085.056-.1s.115.039.116,0a.523.523,0,0,0-.076-.261.146.146,0,0,0-.112-.057.164.164,0,0,0-.171.133c0,.054.027.084.022.134-.008.028-.039.047-.115.013.012-.011-.049-.089-.049-.089a.2.2,0,0,0-.188.032.245.245,0,0,0-.017.21.979.979,0,0,0,.512.391Zm-.93,1.787c.1,0,.224-.219.276-.437a3.42,3.42,0,0,0-.027-.659c-.009-.176-.216-1.606-.259-1.74-.051-.252.2-.033.175-.18-.088-.185-.306-.454-.374-.615-.026-.043-.029-.083-.05-.079s-.031.019-.066.062a1.278,1.278,0,0,0-.083.627,12.631,12.631,0,0,1,.408,3.02Zm-.78-.215a2.849,2.849,0,0,1-.963.647c-.041.042.1.221.284.221a1.067,1.067,0,0,0,.824-.607,1.033,1.033,0,0,0,.187-.466,9.392,9.392,0,0,0-.205-2.363.363.363,0,0,1,.009-.165c.02-.022.087,0,.123-.053.052-.049-.139-.457-.248-.614-.022-.039-.035-.071-.054-.069s-.033.023-.061.077a.826.826,0,0,0-.108.444c.146.931.191,1.745.286,2.675a.347.347,0,0,1-.071.273Zm.628-.381C234.99,153.226,234.99,153.226,234.987,153.239Zm-1.224-2.623c.053.137-.041.269.015.288s.122-.142.149-.293a.44.44,0,0,0-.2-.423l-.032,0c-.077,0-.161.042-.128.131-.019.048.164.212.194.3Zm2.7,1.427h-.012l-.709.469c-.069.056-.034.254,0,.231a2.783,2.783,0,0,0,.733-.468c.03,0,.045-.224-.011-.233Zm-.487-1.269q.316.358.617.728c.044.519.055.995.1,1.515-.006.222-.081.518-.151.546a.174.174,0,0,1-.179-.006,2,2,0,0,1-.261-.321.167.167,0,0,0-.254,0,3.156,3.156,0,0,0-.447.777c-.037.054-.14.1-.255,0a.99.99,0,0,1-.155-.768l0,.013a.781.781,0,0,0-.086.814.659.659,0,0,0,.322.338.238.238,0,0,0,.336-.033c.153-.146.155-.52.227-.594a.138.138,0,0,1,.238-.052.574.574,0,0,0,.218.174.389.389,0,0,0,.481.031.528.528,0,0,0,.256-.289,9.323,9.323,0,0,0,.02-1.627l.32.428a9.779,9.779,0,0,1,.052,1.332c-.011.085.323-.255.321-.416v-.388c.162.239.319.481.467.727.092-.045.06-.525,0-.591-.155-.24-.354-.5-.508-.7-.03-.254-.072-.552-.091-.644-.029-.143-.059-.357-.1-.527a1.658,1.658,0,0,1-.037-.3c.018-.047.087,0,.12-.053a1.8,1.8,0,0,0-.289-.742c-.041-.069-.115-.045-.208.067-.085.074-.054.242-.022.4.085.407.16.822.22,1.236l-.379-.512-.017-.081c0-.009-.018-.333-.034-.411,0-.032-.011-.041.025-.036a.211.211,0,0,0,.067.041c.038.006.072-.053.049-.109l-.356-.606a.1.1,0,0,0-.049-.029c-.018,0-.039.006-.061.036a.231.231,0,0,0-.089.18c.01.143.038.29.049.434l.011.057a.545.545,0,0,0-.04-.043c-.3-.294.139-.048-.058-.275a2.289,2.289,0,0,0-.358-.324c-.072-.043-.115-.124-.138.013a2.565,2.565,0,0,0-.01.366.478.478,0,0,0,.119.228Zm1.76.236c.024.069-.037.291.013.312s.112-.153.136-.317c.013-.089-.058-.4-.18-.459a.172.172,0,0,0-.029,0,.107.107,0,0,0-.116.142c-.017.052.149.229.176.326Zm-5.289,3.216a.1.1,0,0,0,.127.013,2.532,2.532,0,0,1,.438-.141c.053,0,.05-.132-.034-.137a.541.541,0,0,0-.321.09c-.068.013-.079-.023-.094-.057-.017-.084.039-.144.027-.207a.16.16,0,0,0-.082-.03.1.1,0,0,0-.05.011.9.9,0,0,0-.2.158c-.029.021-.026.038-.017.074s.063.033.109.011.09.029.085.1A.117.117,0,0,0,232.443,154.225Zm.685-1.332h0v0a.036.036,0,0,0,0-.011l-.066-.036-1.3-.006-.035-.015,0,0h0v0h0v-.01h0v0a.093.093,0,0,1,.041-.022c.31-.039.86-.122.9-.609-.006-.254-.118-.42-.456-.466a.431.431,0,0,0-.4.483c-.012.066.024.195-.049.209-.477.04-1,.315-1.014.512h-.022a.113.113,0,0,1-.065-.121,2.222,2.222,0,0,0-.327-1.023c-.067-.062-.1-.087-.116-.09h-.009a.009.009,0,0,0-.006,0l0,0a.63.63,0,0,1-.07.059c-.065.068-.077.115-.073.252,0,.013.123.321.225.536a1.542,1.542,0,0,1,.085.722,1.853,1.853,0,0,1-.792.763.446.446,0,0,1-.331,0h0a.182.182,0,0,1-.087-.174h0a1.8,1.8,0,0,0,.8-.758.719.719,0,0,0,.022-.546.505.505,0,0,0-.134-.253h0c.045-.019.16.059.178.011a.779.779,0,0,0-.228-.388.2.2,0,0,0-.28-.015c-.1.049-.117.227-.07.382.051.117.19.137.289.372h0c0,.013.034.176-.016.24a3.047,3.047,0,0,1-.6.516l0,0h-.007v0c0-.011,0-.033,0-.072,0-.071.028-.231.026-.258h0c-.172.1-.228.415-.26.508a8.193,8.193,0,0,0-1.213.763c-.148.213,1.02-.245,1.156-.3a.009.009,0,0,1,0,0c.026.026.028.117.105.2a.649.649,0,0,0,.631.187,1.971,1.971,0,0,0,.911-.7c.035-.047.091-.085.142-.048a1.458,1.458,0,0,0,1.292.625c.146-.164.076-.245.017-.279-.018-.013-.315-.118-.361-.224-.029-.1.041-.186.183-.252a6.841,6.841,0,0,0,1.192-.21.914.914,0,0,1,.132-.376.186.186,0,0,1,.067-.067Zm-1.069-.75a.036.036,0,0,1,0-.011l0,0h0l.006-.006a.073.073,0,0,1,.033-.013.2.2,0,0,1,.1.025c.052.028.084.069.079.1,0,0,0,0,0,0a.009.009,0,0,0,0,0v.008a.071.071,0,0,1-.007.009.138.138,0,0,1-.136-.011c-.051-.027-.083-.069-.079-.1a.013.013,0,0,0,0,0Zm-.518,1.2c-.139.044-.273.078-.273.263.018.092.014.14,0,.162l0,.006h-.007s0,0-.007,0h-.007a.265.265,0,0,1-.117-.042.684.684,0,0,1-.361-.489.129.129,0,0,1,.136-.13h.015a4.356,4.356,0,0,0,.542.057c.151.009.225.117.084.163Zm-3.042-.408c0,.053.159.118.169.24.023.051-.035.213.014.228s.106-.112.129-.232c.013-.066-.056-.3-.172-.337a.163.163,0,0,0-.056,0c-.056,0-.107.031-.084.1Zm2.613-.749c.149.066.505.027.419-.185,0-.019-.006-.086-.008-.1a.065.065,0,0,0-.07-.041.08.08,0,0,0-.062.058c-.006.022.012.059-.01.07s-.061,0-.059-.057a.1.1,0,0,0-.025-.053.045.045,0,0,0-.032-.009c-.021,0-.021.006-.033.022a.165.165,0,0,0-.011.051c0,.022-.011.029-.028.032s-.015,0-.031-.009-.022-.013-.022-.029a.171.171,0,0,0-.009-.054.066.066,0,0,0-.037-.017c-.082,0-.086.086-.082.118a.2.2,0,0,0,.1.2Zm1.264-1.515c.25.31.491.622.724.944.036.239.063.474.081.707a13.12,13.12,0,0,1,.015,1.686c.1,0,.27-.155.329-.387a10.388,10.388,0,0,0-.017-1.166c0-.079-.008-.172-.014-.271q.424.639.791,1.313c.094-.041.073-.529.018-.6-.206-.409-.491-.813-.582-.968-.033-.056-.144-.213-.277-.393-.024-.258-.051-.476-.068-.542-.043-.272.121.03.1-.128a1.7,1.7,0,0,0-.408-.706c-.062-.081-.06-.1-.157.019a.483.483,0,0,0-.04.313q-.048-.064-.1-.123l-.314-.246a.355.355,0,0,0-.189-.067.085.085,0,0,0-.079.075.734.734,0,0,0,.015.289,1.019,1.019,0,0,0,.176.246Zm.53-.017c.006.026.013.053.017.079.014.058.027.115.04.172-.055-.07-.1-.126-.12-.146-.125-.137,0-.089.064-.105Z" transform="translate(-218.223 -144.482)" fill="#fff"/>
    </g>
  </g>
</svg>
