<svg width="444" height="100" viewBox="0 0 444 100" fill="none" xmlns="http://www.w3.org/2000/svg">
<path d="M99.8952 51.2041C99.6108 62.5746 95.4548 73.5077 88.1141 82.1959L100.246 100H78.0392L74.2187 94.4589L63.8083 79.0899L76.875 66.0417C79.2876 59.2027 81.6667 52.2917 81.0596 45.0785C79.925 37.8243 76.3026 31.1906 70.8133 26.3144C65.3239 21.4381 58.3094 18.623 50.9721 18.3516C43.6347 18.0801 36.4314 20.3692 30.5967 24.8264C24.762 29.2837 20.6593 35.6316 18.9918 42.7821C17.3243 49.9326 18.1958 57.4405 21.4569 64.0189C24.7181 70.5973 30.1658 75.8366 36.8663 78.8388C43.5669 81.841 51.103 82.4192 58.1831 80.4741L68.5104 96.3426C62.5757 98.6887 56.253 99.8991 49.8714 99.9107C38.4973 99.8916 27.4703 95.9916 18.6134 88.8555C9.75641 81.7193 3.59985 71.7744 1.16149 60.6648C-1.27687 49.5551 0.148974 37.946 5.20331 27.7566C10.2576 17.5672 18.6378 9.40771 28.9584 4.62701C39.279 -0.153701 50.922 -1.26934 61.9627 1.46454C73.0033 4.19841 82.7804 10.6181 89.6777 19.6623C96.575 28.7064 100.179 39.8336 99.8952 51.2041Z" fill="white"/>
<path d="M62.7064 77.6562L76.9444 65.9027L88.1131 82.1947L100.245 99.9936H78.0392L62.7064 77.6562Z" fill="#F20505"/>
<path d="M31.2715 67.9688C43.7438 60.0928 69.8588 43.598 79.0462 37.796C85.9169 54.4412 77.4316 71.6937 63.3293 78.556L59.9379 73.6419C69.4683 69.1562 76.8642 58.6695 75.4989 46.84C58.6408 57.4862 38.358 70.297 30.7208 75.1199C26.8107 72.169 23.7849 68.4823 21.6699 64.4264L70.12 33.8266C69.617 33.1888 69.0852 32.5748 68.5261 31.9866C62.2139 35.9735 24.9906 59.4816 20.6265 62.2381C10.223 37.9133 32.7835 12.3044 58.1706 19.3074V25.3259C40.0852 19.1043 21.5407 34.1113 24.0778 53.2559C41.8126 42.0551 62.2725 29.1334 69.1271 24.8037C72.7966 27.6496 75.873 31.3092 78.0483 35.6231C68.0688 41.9258 39.7082 59.8361 29.6677 66.1783C30.1743 66.8 30.7101 67.397 31.2715 67.9688Z" fill="#F20505"/>
<path d="M114 85.2848C118.79 94.33 128.371 99.9957 140.247 99.9957C153.919 99.9957 164.397 92.2427 164.397 79.5197C164.397 70.2757 159.008 64.5106 147.532 59.7395L139.947 56.5588C135.656 54.869 134.259 53.5768 134.259 51.1913C134.259 48.4081 136.554 47.0165 140.147 47.0165C144.837 47.0165 147.831 49.2033 151.025 53.9744L162.501 45.2274C158.509 37.1761 150.825 32.0074 139.947 32.0074C126.475 32.0074 116.894 39.7605 116.894 51.3901C116.894 60.2365 122.682 66.3992 133.56 71.1703L140.346 74.1522C145.536 76.4384 147.033 77.333 147.033 80.2155C147.033 83.3962 144.737 84.9866 140.247 84.9866C133.56 84.9866 129.469 81.7065 125.576 76.5378L114 85.2848Z" fill="white"/>
<path d="M188.306 98.8029H205.471V48.6069H225.231V33.2002H168.546V48.6069H188.306V98.8029Z" fill="white"/>
<path d="M228.437 66.0016C228.037 84.9866 244.604 100.294 263.864 99.9957C283.025 100.294 299.891 84.9866 299.492 66.0016C299.891 47.2153 283.025 31.6098 263.864 32.0074C244.604 31.6098 228.037 47.2153 228.437 66.0016ZM281.928 66.0016C281.928 76.9354 274.143 84.2908 263.964 84.2908C258.675 84.2908 254.284 82.6011 250.991 79.3209C247.697 75.9414 246.001 71.4685 246.001 66.0016C246.001 55.1672 253.386 47.7123 263.964 47.7123C274.143 47.7123 281.928 55.1672 281.928 66.0016Z" fill="white"/>
<path d="M305.916 66.0016C305.516 84.9866 322.083 100.294 341.443 99.9957C354.716 99.9957 365.694 93.5348 371.682 82.4023L358.608 73.5558C354.317 80.7125 348.629 84.2908 341.443 84.2908C336.154 84.2908 331.863 82.6011 328.47 79.3209C325.176 75.9414 323.48 71.5679 323.48 66.101C323.48 55.0678 330.965 47.7123 341.443 47.7123C348.629 47.7123 354.317 51.2907 358.608 58.4473L371.682 49.6009C365.694 38.4683 354.716 32.0074 341.543 32.0074C321.983 31.6098 305.616 47.2153 305.916 66.0016Z" fill="white"/>
<path d="M444 98.8029L417.654 64.4112L440.308 33.2002H420.348L398.592 62.9202V33.2002H381.427V98.8029H398.592V66.101L423.641 98.8029H444Z" fill="white"/>
</svg>
